<mxfile host="Electron" modified="2024-06-13T04:46:46.896Z" agent="Mozilla/5.0 (Windows NT 10.0; Win64; x64) AppleWebKit/537.36 (KHTML, like Gecko) draw.io/24.5.1 Chrome/124.0.6367.207 Electron/30.0.6 Safari/537.36" etag="XYf4V51ncEUnKxwmJXL9" version="24.5.1" type="device">
  <diagram name="Страница — 1" id="31aIk6EJoHQ0xE6Vrybh">
    <mxGraphModel dx="2569" dy="828" grid="1" gridSize="10" guides="1" tooltips="1" connect="1" arrows="1" fold="1" page="1" pageScale="1" pageWidth="1169" pageHeight="827" math="0" shadow="0">
      <root>
        <mxCell id="0" />
        <mxCell id="1" parent="0" />
        <mxCell id="0LVna0lhCMWHPijhbWog-1" style="edgeStyle=orthogonalEdgeStyle;rounded=0;orthogonalLoop=1;jettySize=auto;html=1;endArrow=none;endFill=0;fontSize=18;entryX=0.861;entryY=-0.003;entryDx=0;entryDy=0;entryPerimeter=0;" parent="1" target="0LVna0lhCMWHPijhbWog-16" edge="1">
          <mxGeometry relative="1" as="geometry">
            <mxPoint x="540" y="890" as="sourcePoint" />
            <mxPoint x="50" y="924.94" as="targetPoint" />
            <Array as="points">
              <mxPoint x="540" y="900" />
              <mxPoint x="-210" y="900" />
              <mxPoint x="-210" y="910" />
            </Array>
          </mxGeometry>
        </mxCell>
        <mxCell id="0LVna0lhCMWHPijhbWog-2" value="index.php" style="rounded=0;whiteSpace=wrap;html=1;fontSize=18;" parent="1" vertex="1">
          <mxGeometry x="480" y="850" width="120" height="30" as="geometry" />
        </mxCell>
        <mxCell id="0LVna0lhCMWHPijhbWog-3" style="edgeStyle=orthogonalEdgeStyle;rounded=0;orthogonalLoop=1;jettySize=auto;html=1;exitX=0.5;exitY=0;exitDx=0;exitDy=0;endArrow=none;endFill=0;fontSize=18;" parent="1" source="0LVna0lhCMWHPijhbWog-4" edge="1">
          <mxGeometry relative="1" as="geometry">
            <mxPoint x="400.14285714285734" y="900" as="targetPoint" />
          </mxGeometry>
        </mxCell>
        <mxCell id="0LVna0lhCMWHPijhbWog-4" value="#reg" style="rounded=0;whiteSpace=wrap;html=1;fontSize=18;" parent="1" vertex="1">
          <mxGeometry x="410" y="920" width="120" height="30" as="geometry" />
        </mxCell>
        <mxCell id="0LVna0lhCMWHPijhbWog-5" style="edgeStyle=orthogonalEdgeStyle;rounded=0;orthogonalLoop=1;jettySize=auto;html=1;endArrow=none;endFill=0;fontSize=18;" parent="1" source="0LVna0lhCMWHPijhbWog-6" edge="1">
          <mxGeometry relative="1" as="geometry">
            <mxPoint x="585" y="900" as="targetPoint" />
          </mxGeometry>
        </mxCell>
        <mxCell id="0LVna0lhCMWHPijhbWog-6" value="#sign" style="rounded=0;whiteSpace=wrap;html=1;fontSize=18;" parent="1" vertex="1">
          <mxGeometry x="550" y="920" width="120" height="30" as="geometry" />
        </mxCell>
        <mxCell id="0LVna0lhCMWHPijhbWog-7" style="edgeStyle=orthogonalEdgeStyle;rounded=0;orthogonalLoop=1;jettySize=auto;html=1;endArrow=none;endFill=0;fontSize=18;" parent="1" source="0LVna0lhCMWHPijhbWog-10" edge="1">
          <mxGeometry relative="1" as="geometry">
            <mxPoint x="794.91" y="900" as="targetPoint" />
          </mxGeometry>
        </mxCell>
        <mxCell id="0LVna0lhCMWHPijhbWog-8" style="edgeStyle=orthogonalEdgeStyle;rounded=0;orthogonalLoop=1;jettySize=auto;html=1;entryX=0.627;entryY=-0.005;entryDx=0;entryDy=0;endArrow=none;endFill=0;fontSize=18;entryPerimeter=0;" parent="1" source="0LVna0lhCMWHPijhbWog-10" target="0LVna0lhCMWHPijhbWog-27" edge="1">
          <mxGeometry relative="1" as="geometry">
            <Array as="points">
              <mxPoint x="686" y="980" />
              <mxPoint x="686" y="985" />
            </Array>
            <mxPoint x="619.91" y="1010" as="targetPoint" />
          </mxGeometry>
        </mxCell>
        <mxCell id="0LVna0lhCMWHPijhbWog-9" style="edgeStyle=orthogonalEdgeStyle;rounded=0;orthogonalLoop=1;jettySize=auto;html=1;endArrow=none;endFill=0;fontSize=18;" parent="1" source="0LVna0lhCMWHPijhbWog-10" target="0LVna0lhCMWHPijhbWog-25" edge="1">
          <mxGeometry relative="1" as="geometry" />
        </mxCell>
        <mxCell id="0LVna0lhCMWHPijhbWog-10" value="personal-cab.php" style="rounded=0;whiteSpace=wrap;html=1;fontSize=18;" parent="1" vertex="1">
          <mxGeometry x="754.91" y="940" width="130" height="40" as="geometry" />
        </mxCell>
        <mxCell id="0LVna0lhCMWHPijhbWog-11" style="edgeStyle=orthogonalEdgeStyle;rounded=0;orthogonalLoop=1;jettySize=auto;html=1;endArrow=none;endFill=0;fontSize=18;" parent="1" source="0LVna0lhCMWHPijhbWog-13" edge="1">
          <mxGeometry relative="1" as="geometry">
            <mxPoint x="210" y="900" as="targetPoint" />
          </mxGeometry>
        </mxCell>
        <mxCell id="0LVna0lhCMWHPijhbWog-12" style="edgeStyle=orthogonalEdgeStyle;rounded=0;orthogonalLoop=1;jettySize=auto;html=1;endArrow=none;endFill=0;" parent="1" source="0LVna0lhCMWHPijhbWog-13" target="0LVna0lhCMWHPijhbWog-33" edge="1">
          <mxGeometry relative="1" as="geometry">
            <Array as="points">
              <mxPoint x="195" y="1000" />
              <mxPoint x="195" y="1000" />
            </Array>
          </mxGeometry>
        </mxCell>
        <mxCell id="0LVna0lhCMWHPijhbWog-13" value="doctors.php" style="rounded=0;whiteSpace=wrap;html=1;fontSize=18;" parent="1" vertex="1">
          <mxGeometry x="130" y="920" width="130" height="40" as="geometry" />
        </mxCell>
        <mxCell id="0LVna0lhCMWHPijhbWog-14" style="edgeStyle=orthogonalEdgeStyle;rounded=0;orthogonalLoop=1;jettySize=auto;html=1;entryX=0;entryY=0.5;entryDx=0;entryDy=0;endArrow=none;endFill=0;exitX=1;exitY=0.5;exitDx=0;exitDy=0;" parent="1" source="0LVna0lhCMWHPijhbWog-16" target="0LVna0lhCMWHPijhbWog-42" edge="1">
          <mxGeometry relative="1" as="geometry">
            <mxPoint x="-140" y="1000" as="targetPoint" />
            <Array as="points">
              <mxPoint x="-140" y="930" />
              <mxPoint x="-140" y="960" />
              <mxPoint x="-120" y="960" />
            </Array>
          </mxGeometry>
        </mxCell>
        <mxCell id="BK1kg9VcL8QSvB3XyQTt-3" style="edgeStyle=orthogonalEdgeStyle;rounded=0;orthogonalLoop=1;jettySize=auto;html=1;endArrow=none;endFill=0;" parent="1" source="0LVna0lhCMWHPijhbWog-16" edge="1">
          <mxGeometry relative="1" as="geometry">
            <mxPoint x="-240" y="1080.0000000000002" as="targetPoint" />
          </mxGeometry>
        </mxCell>
        <mxCell id="0LVna0lhCMWHPijhbWog-16" value="admin" style="rounded=0;whiteSpace=wrap;html=1;fontSize=18;" parent="1" vertex="1">
          <mxGeometry x="-310" y="910" width="140" height="40" as="geometry" />
        </mxCell>
        <mxCell id="0LVna0lhCMWHPijhbWog-17" style="edgeStyle=orthogonalEdgeStyle;rounded=0;orthogonalLoop=1;jettySize=auto;html=1;entryX=0.5;entryY=0;entryDx=0;entryDy=0;endArrow=none;endFill=0;fontSize=18;" parent="1" source="0LVna0lhCMWHPijhbWog-19" target="0LVna0lhCMWHPijhbWog-21" edge="1">
          <mxGeometry relative="1" as="geometry" />
        </mxCell>
        <mxCell id="0LVna0lhCMWHPijhbWog-19" value="doctor/index.php" style="rounded=0;whiteSpace=wrap;html=1;fontSize=18;" parent="1" vertex="1">
          <mxGeometry x="960.0000000000001" y="920" width="130" height="40" as="geometry" />
        </mxCell>
        <mxCell id="0LVna0lhCMWHPijhbWog-21" value="add_record.php" style="rounded=0;whiteSpace=wrap;html=1;fontSize=18;" parent="1" vertex="1">
          <mxGeometry x="970.0000000000001" y="1030" width="130" height="40" as="geometry" />
        </mxCell>
        <mxCell id="0LVna0lhCMWHPijhbWog-22" style="edgeStyle=orthogonalEdgeStyle;rounded=0;orthogonalLoop=1;jettySize=auto;html=1;entryX=0.642;entryY=0.024;entryDx=0;entryDy=0;entryPerimeter=0;exitX=0.5;exitY=1;exitDx=0;exitDy=0;endArrow=none;endFill=0;fontSize=18;" parent="1" source="0LVna0lhCMWHPijhbWog-2" target="0LVna0lhCMWHPijhbWog-19" edge="1">
          <mxGeometry relative="1" as="geometry" />
        </mxCell>
        <mxCell id="0LVna0lhCMWHPijhbWog-24" style="edgeStyle=orthogonalEdgeStyle;rounded=0;orthogonalLoop=1;jettySize=auto;html=1;endArrow=none;endFill=0;fontSize=18;" parent="1" source="0LVna0lhCMWHPijhbWog-25" target="0LVna0lhCMWHPijhbWog-28" edge="1">
          <mxGeometry relative="1" as="geometry" />
        </mxCell>
        <mxCell id="0LVna0lhCMWHPijhbWog-25" value="doctors.php" style="rounded=0;whiteSpace=wrap;html=1;fontSize=18;" parent="1" vertex="1">
          <mxGeometry x="734.91" y="1065" width="130" height="40" as="geometry" />
        </mxCell>
        <mxCell id="0LVna0lhCMWHPijhbWog-27" value="medcard.php" style="rounded=0;whiteSpace=wrap;html=1;fontSize=18;" parent="1" vertex="1">
          <mxGeometry x="604.91" y="985" width="130" height="40" as="geometry" />
        </mxCell>
        <mxCell id="0LVna0lhCMWHPijhbWog-28" value="informationDoctors.php" style="rounded=0;whiteSpace=wrap;html=1;fontSize=18;" parent="1" vertex="1">
          <mxGeometry x="700.41" y="1160" width="199" height="59.5" as="geometry" />
        </mxCell>
        <mxCell id="0LVna0lhCMWHPijhbWog-29" style="edgeStyle=orthogonalEdgeStyle;rounded=0;orthogonalLoop=1;jettySize=auto;html=1;exitX=0.5;exitY=0;exitDx=0;exitDy=0;endArrow=none;endFill=0;" parent="1" source="0LVna0lhCMWHPijhbWog-30" edge="1">
          <mxGeometry relative="1" as="geometry">
            <mxPoint x="334.82352941176487" y="900" as="targetPoint" />
            <Array as="points">
              <mxPoint x="335" y="900" />
            </Array>
          </mxGeometry>
        </mxCell>
        <mxCell id="0LVna0lhCMWHPijhbWog-30" value="directions.php" style="rounded=0;whiteSpace=wrap;html=1;fontSize=18;" parent="1" vertex="1">
          <mxGeometry x="270" y="920" width="130" height="40" as="geometry" />
        </mxCell>
        <mxCell id="0LVna0lhCMWHPijhbWog-33" value="informationDoctors.php" style="rounded=0;whiteSpace=wrap;html=1;fontSize=18;" parent="1" vertex="1">
          <mxGeometry x="70" y="990" width="205" height="50" as="geometry" />
        </mxCell>
        <mxCell id="0LVna0lhCMWHPijhbWog-34" style="edgeStyle=orthogonalEdgeStyle;rounded=0;orthogonalLoop=1;jettySize=auto;html=1;endArrow=none;endFill=0;entryX=0.45;entryY=-0.079;entryDx=0;entryDy=0;entryPerimeter=0;" parent="1" source="0LVna0lhCMWHPijhbWog-30" target="0LVna0lhCMWHPijhbWog-35" edge="1">
          <mxGeometry relative="1" as="geometry">
            <mxPoint x="340" y="1040" as="targetPoint" />
          </mxGeometry>
        </mxCell>
        <mxCell id="0LVna0lhCMWHPijhbWog-35" value="informationDirections.php" style="rounded=0;whiteSpace=wrap;html=1;fontSize=18;" parent="1" vertex="1">
          <mxGeometry x="280" y="1010" width="230" height="40" as="geometry" />
        </mxCell>
        <mxCell id="0LVna0lhCMWHPijhbWog-37" value="informationDoctors.php" style="rounded=0;whiteSpace=wrap;html=1;fontSize=18;" parent="1" vertex="1">
          <mxGeometry x="270" y="1090" width="190" height="70" as="geometry" />
        </mxCell>
        <mxCell id="0LVna0lhCMWHPijhbWog-38" style="edgeStyle=orthogonalEdgeStyle;rounded=0;orthogonalLoop=1;jettySize=auto;html=1;entryX=0.444;entryY=0;entryDx=0;entryDy=0;entryPerimeter=0;endArrow=none;endFill=0;" parent="1" source="0LVna0lhCMWHPijhbWog-35" target="0LVna0lhCMWHPijhbWog-37" edge="1">
          <mxGeometry relative="1" as="geometry" />
        </mxCell>
        <mxCell id="0LVna0lhCMWHPijhbWog-42" value="managing-user.php" style="rounded=0;whiteSpace=wrap;html=1;fontSize=18;" parent="1" vertex="1">
          <mxGeometry x="-120" y="950" width="160" height="40" as="geometry" />
        </mxCell>
        <mxCell id="0LVna0lhCMWHPijhbWog-44" value="adding-doctor.php" style="rounded=0;whiteSpace=wrap;html=1;fontSize=18;" parent="1" vertex="1">
          <mxGeometry x="-550" y="1025" width="170" height="60" as="geometry" />
        </mxCell>
        <mxCell id="BK1kg9VcL8QSvB3XyQTt-6" style="edgeStyle=orthogonalEdgeStyle;rounded=0;orthogonalLoop=1;jettySize=auto;html=1;endArrow=none;endFill=0;" parent="1" source="0LVna0lhCMWHPijhbWog-45" edge="1">
          <mxGeometry relative="1" as="geometry">
            <mxPoint x="-455" y="1020.0000000000002" as="targetPoint" />
          </mxGeometry>
        </mxCell>
        <mxCell id="0LVna0lhCMWHPijhbWog-45" value="managing-doctors.php" style="rounded=0;whiteSpace=wrap;html=1;fontSize=18;" parent="1" vertex="1">
          <mxGeometry x="-540" y="925" width="170" height="70" as="geometry" />
        </mxCell>
        <mxCell id="0LVna0lhCMWHPijhbWog-46" style="edgeStyle=orthogonalEdgeStyle;rounded=0;orthogonalLoop=1;jettySize=auto;html=1;exitX=0.25;exitY=0;exitDx=0;exitDy=0;entryX=0.75;entryY=1;entryDx=0;entryDy=0;endArrow=none;endFill=0;" parent="1" source="0LVna0lhCMWHPijhbWog-47" edge="1">
          <mxGeometry relative="1" as="geometry">
            <mxPoint x="-65" y="1090" as="sourcePoint" />
            <mxPoint x="-200" y="950.0000000000001" as="targetPoint" />
          </mxGeometry>
        </mxCell>
        <mxCell id="0LVna0lhCMWHPijhbWog-47" value="managing-direction.php" style="rounded=0;whiteSpace=wrap;html=1;fontSize=18;" parent="1" vertex="1">
          <mxGeometry x="-160" y="1035" width="160" height="90" as="geometry" />
        </mxCell>
        <mxCell id="BK1kg9VcL8QSvB3XyQTt-4" style="edgeStyle=orthogonalEdgeStyle;rounded=0;orthogonalLoop=1;jettySize=auto;html=1;entryX=0.5;entryY=1;entryDx=0;entryDy=0;endArrow=none;endFill=0;" parent="1" source="0LVna0lhCMWHPijhbWog-49" target="0LVna0lhCMWHPijhbWog-51" edge="1">
          <mxGeometry relative="1" as="geometry">
            <Array as="points">
              <mxPoint x="-270" y="1140" />
              <mxPoint x="-270" y="1140" />
            </Array>
          </mxGeometry>
        </mxCell>
        <mxCell id="0LVna0lhCMWHPijhbWog-49" value="adding-specil.php" style="rounded=0;whiteSpace=wrap;html=1;fontSize=18;" parent="1" vertex="1">
          <mxGeometry x="-350" y="1155" width="160" height="40" as="geometry" />
        </mxCell>
        <mxCell id="0LVna0lhCMWHPijhbWog-51" value="managing-specil.php" style="rounded=0;whiteSpace=wrap;html=1;fontSize=18;" parent="1" vertex="1">
          <mxGeometry x="-350" y="1085" width="160" height="40" as="geometry" />
        </mxCell>
        <mxCell id="0LVna0lhCMWHPijhbWog-52" value="managing-direction.php" style="rounded=0;whiteSpace=wrap;html=1;fontSize=18;" parent="1" vertex="1">
          <mxGeometry x="-170" y="1190" width="160" height="40" as="geometry" />
        </mxCell>
        <mxCell id="0LVna0lhCMWHPijhbWog-57" style="edgeStyle=orthogonalEdgeStyle;rounded=0;orthogonalLoop=1;jettySize=auto;html=1;entryX=0;entryY=0.25;entryDx=0;entryDy=0;endArrow=none;endFill=0;" parent="1" source="0LVna0lhCMWHPijhbWog-45" target="0LVna0lhCMWHPijhbWog-16" edge="1">
          <mxGeometry relative="1" as="geometry" />
        </mxCell>
        <mxCell id="syRTUs2KHvoUT8mgRDSP-2" style="edgeStyle=orthogonalEdgeStyle;rounded=0;orthogonalLoop=1;jettySize=auto;html=1;entryX=0.5;entryY=0;entryDx=0;entryDy=0;endArrow=classic;endFill=1;" parent="1" source="syRTUs2KHvoUT8mgRDSP-1" target="0LVna0lhCMWHPijhbWog-2" edge="1">
          <mxGeometry relative="1" as="geometry" />
        </mxCell>
        <mxCell id="syRTUs2KHvoUT8mgRDSP-1" value="&lt;font style=&quot;font-size: 20px;&quot;&gt;hosptal.sql&lt;/font&gt;" style="shape=cylinder3;whiteSpace=wrap;html=1;boundedLbl=1;backgroundOutline=1;size=15;direction=south;" parent="1" vertex="1">
          <mxGeometry x="450" y="730" width="130" height="90" as="geometry" />
        </mxCell>
        <mxCell id="BK1kg9VcL8QSvB3XyQTt-5" style="edgeStyle=orthogonalEdgeStyle;rounded=0;orthogonalLoop=1;jettySize=auto;html=1;entryX=0.563;entryY=0.031;entryDx=0;entryDy=0;entryPerimeter=0;endArrow=none;endFill=0;" parent="1" source="0LVna0lhCMWHPijhbWog-47" target="0LVna0lhCMWHPijhbWog-52" edge="1">
          <mxGeometry relative="1" as="geometry" />
        </mxCell>
      </root>
    </mxGraphModel>
  </diagram>
</mxfile>
